<svg xmlns="http://www.w3.org/2000/svg" viewBox="0 0 512 512" width="512" height="512">
  <rect width="512" height="512" rx="84" fill="#5a3818"/>
  <rect x="48" y="48" width="416" height="416" rx="60" fill="#faf8f3"/>
  <path d="M145 126h157c61 0 95 31 95 80 0 30-17 53-45 67 32 11 50 35 50 74 0 23-8 42-23 57-23 22-55 32-98 32H145V126Zm75 58v62h86c19 0 30-2 38-7 9-6 14-15 14-25 0-12-5-20-14-24-8-4-19-6-38-6h-86Zm0 119v67h84c22 0 35-2 43-8 9-6 14-16 14-28 0-13-5-22-14-26-8-4-21-5-43-5h-84Z" fill="#5a3818"/>
</svg>
